<?plantuml 1.2026.1beta5?><svg xmlns="http://www.w3.org/2000/svg" xmlns:xlink="http://www.w3.org/1999/xlink" contentStyleType="text/css" data-diagram-type="DESCRIPTION" height="289px" preserveAspectRatio="none" style="width:2121px;height:289px;background:#FFFFFF;" version="1.1" viewBox="0 0 2121 289" width="2121px" zoomAndPan="magnify"><title>NAFES Platform - Level 0 Context Diagram</title><defs/><g><g class="title" data-source-line="1"><text fill="#000000" font-family="sans-serif" font-size="14" font-weight="bold" lengthAdjust="spacing" textLength="335.3916" x="885.9857" y="22.9951">NAFES Platform - Level 0 Context Diagram</text></g><!--entity Organizer--><g class="entity" data-qualified-name="Organizer" data-source-line="21" id="ent0002"><ellipse cx="1787.5721" cy="51.2969" fill="#FFFFE0" rx="8" ry="8" style="stroke:#000000;stroke-width:2;"/><path d="M1787.5721,59.2969 L1787.5721,86.2969 M1774.5721,67.2969 L1800.5721,67.2969 M1787.5721,86.2969 L1774.5721,101.2969 M1787.5721,86.2969 L1800.5721,101.2969" fill="none" style="stroke:#000000;stroke-width:2;"/><text fill="#000000" font-family="sans-serif" font-size="12" lengthAdjust="spacing" textLength="58.9043" x="1758.12" y="115.4355">Organizer</text></g><!--entity Student--><g class="entity" data-qualified-name="Student" data-source-line="22" id="ent0003"><ellipse cx="1117.5791" cy="51.2969" fill="#FFFFE0" rx="8" ry="8" style="stroke:#000000;stroke-width:2;"/><path d="M1117.5791,59.2969 L1117.5791,86.2969 M1104.5791,67.2969 L1130.5791,67.2969 M1117.5791,86.2969 L1104.5791,101.2969 M1117.5791,86.2969 L1130.5791,101.2969" fill="none" style="stroke:#000000;stroke-width:2;"/><text fill="#000000" font-family="sans-serif" font-size="12" lengthAdjust="spacing" textLength="47.2383" x="1093.96" y="115.4355">Student</text></g><!--entity GovAdmin--><g class="entity" data-qualified-name="GovAdmin" data-source-line="23" id="ent0004"><ellipse cx="533.5782" cy="51.2969" fill="#FFFFE0" rx="8" ry="8" style="stroke:#000000;stroke-width:2;"/><path d="M533.5782,59.2969 L533.5782,86.2969 M520.5782,67.2969 L546.5782,67.2969 M533.5782,86.2969 L520.5782,101.2969 M533.5782,86.2969 L546.5782,101.2969" fill="none" style="stroke:#000000;stroke-width:2;"/><text fill="#000000" font-family="sans-serif" font-size="12" lengthAdjust="spacing" textLength="117.3164" x="474.92" y="115.4355">Government Admin</text></g><!--entity Sponsor--><g class="entity" data-qualified-name="Sponsor" data-source-line="24" id="ent0005"><ellipse cx="120.5773" cy="51.2969" fill="#FFFFE0" rx="8" ry="8" style="stroke:#000000;stroke-width:2;"/><path d="M120.5773,59.2969 L120.5773,86.2969 M107.5773,67.2969 L133.5773,67.2969 M120.5773,86.2969 L107.5773,101.2969 M120.5773,86.2969 L133.5773,101.2969" fill="none" style="stroke:#000000;stroke-width:2;"/><text fill="#000000" font-family="sans-serif" font-size="12" lengthAdjust="spacing" textLength="118.9746" x="61.09" y="115.4355">Company (Sponsor)</text></g><!--entity NAFES--><g class="entity" data-qualified-name="NAFES" data-source-line="26" id="ent0006"><rect fill="#87CEFA" height="62.5938" rx="2.5" ry="2.5" style="stroke:#000080;stroke-width:3;" width="108.4004" x="955.37" y="221.2669"/><rect fill="#87CEFA" height="10" style="stroke:#000080;stroke-width:3;" width="15" x="1043.7704" y="226.2669"/><rect fill="#87CEFA" height="2" style="stroke:#000080;stroke-width:3;" width="4" x="1041.7704" y="228.2669"/><rect fill="#87CEFA" height="2" style="stroke:#000080;stroke-width:3;" width="4" x="1041.7704" y="232.2669"/><text fill="#000000" font-family="sans-serif" font-size="14" font-weight="bold" lengthAdjust="spacing" textLength="51.7617" x="970.37" y="254.262">NAFES</text><text fill="#000000" font-family="sans-serif" font-size="14" font-weight="bold" lengthAdjust="spacing" textLength="68.4004" x="970.37" y="270.5589">Platform</text></g><!--link Organizer to NAFES--><g class="link" data-entity-1="ent0002" data-entity-2="ent0006" data-link-type="dependency" data-source-line="28" id="lnk7"><path d="M1757.83,84.2069 C1702.45,91.2669 1580.47,110.0969 1484.57,148.2669 C1449.94,162.0469 1447.67,178.7169 1412.57,191.2669 C1293.01,234.0269 1148.9737,246.1929 1069.9937,249.8029" fill="none" id="Organizer-to-NAFES" style="stroke:#000000;stroke-width:2;"/><polygon fill="#000000" points="1064,250.0769,1073.1733,253.6618,1068.9948,249.8486,1072.808,245.6701,1064,250.0769" style="stroke:#000000;stroke-width:2;"/><text fill="#000000" font-family="sans-serif" font-size="12" lengthAdjust="spacing" textLength="216.6035" x="1506.4909" y="167.4055">Competition Data &amp; Mgmt Requests</text><text fill="#000000" font-family="sans-serif" font-size="12" lengthAdjust="spacing" textLength="258.4453" x="1485.57" y="181.3743">(Drafts, Docs, Updates, Results, Messages)</text></g><!--link Organizer to NAFES--><g class="link" data-entity-1="ent0002" data-entity-2="ent0006" data-link-type="dependency" data-source-line="29" id="lnk8"><path d="M1784.53,118.6369 C1780.41,143.3669 1770.81,174.1269 1748.57,191.2669 C1694.69,232.7769 1231.9685,246.7119 1070.1985,250.3519" fill="none" id="Organizer-to-NAFES-1" style="stroke:#000000;stroke-width:2;"/><polygon fill="#000000" points="1064.2,250.4869,1073.2877,254.2834,1069.1987,250.3744,1073.1077,246.2854,1064.2,250.4869" style="stroke:#000000;stroke-width:2;"/><text fill="#000000" font-family="sans-serif" font-size="12" lengthAdjust="spacing" textLength="116.1855" x="1778.4421" y="167.4055">Sponsor Package &amp;</text><text fill="#000000" font-family="sans-serif" font-size="12" lengthAdjust="spacing" textLength="119.9297" x="1776.57" y="181.3743">Request Mgmt Data</text></g><!--reverse link Organizer to NAFES--><g class="link" data-entity-1="ent0002" data-entity-2="ent0006" data-link-type="dependency" data-source-line="30" id="lnk10"><path d="M1823.1726,90.5525 C1851.2626,99.7425 1885.98,116.0769 1904.57,148.2669 C1914.13,164.8069 1917.63,177.3069 1904.57,191.2669 C1847.14,252.6969 1249.46,253.3869 1064.09,252.1069" fill="none" id="Organizer-backto-NAFES" style="stroke:#000000;stroke-width:2;"/><polygon fill="#000000" points="1817.47,88.6869,1824.7801,95.2871,1822.2221,90.2416,1827.2676,87.6837,1817.47,88.6869" style="stroke:#000000;stroke-width:2;"/><text fill="#000000" font-family="sans-serif" font-size="12" lengthAdjust="spacing" textLength="199.793" x="1913.57" y="167.4055">Approval Statuses, Registrations,</text><text fill="#000000" font-family="sans-serif" font-size="12" lengthAdjust="spacing" textLength="190.793" x="1918.07" y="181.3743">Sponsor Requests, Notifications</text></g><!--link Student to NAFES--><g class="link" data-entity-1="ent0003" data-entity-2="ent0006" data-link-type="dependency" data-source-line="32" id="lnk11"><path d="M1093.79,79.8569 C1047.38,79.5069 945.3,86.2369 899.57,148.2669 C888.23,163.6469 889.84,174.8169 899.57,191.2669 C911.78,211.8769 928.3175,223.4917 949.4675,232.7917" fill="none" id="Student-to-NAFES" style="stroke:#000000;stroke-width:2;"/><polygon fill="#000000" points="954.96,235.2069,948.3314,227.9225,950.3829,233.1943,945.1112,235.2458,954.96,235.2069" style="stroke:#000000;stroke-width:2;"/><text fill="#000000" font-family="sans-serif" font-size="12" lengthAdjust="spacing" textLength="173.3379" x="900.57" y="167.4055">Profile Data, Search Queries,</text><text fill="#000000" font-family="sans-serif" font-size="12" lengthAdjust="spacing" textLength="150.0176" x="912.2302" y="181.3743">Registration Applications</text></g><!--link Student to NAFES--><g class="link" data-entity-1="ent0003" data-entity-2="ent0006" data-link-type="dependency" data-source-line="33" id="lnk12"><path d="M1109.39,118.5669 C1103.32,141.0169 1093.48,169.2969 1078.57,191.2669 C1071.25,202.0569 1066.031,208.1481 1056.211,216.8481" fill="none" id="Student-to-NAFES-1" style="stroke:#000000;stroke-width:2;"/><polygon fill="#000000" points="1051.72,220.8269,1061.109,217.8527,1055.4625,217.5112,1055.804,211.8647,1051.72,220.8269" style="stroke:#000000;stroke-width:2;"/><text fill="#000000" font-family="sans-serif" font-size="12" lengthAdjust="spacing" textLength="119.0332" x="1100.57" y="174.4055">Report Submissions</text></g><!--reverse link Student to NAFES--><g class="link" data-entity-1="ent0003" data-entity-2="ent0006" data-link-type="dependency" data-source-line="34" id="lnk14"><path d="M1147.0065,89.4309 C1173.6865,98.4109 1210,115.2369 1228.57,148.2669 C1237.94,164.9169 1240.16,176.0569 1228.57,191.2669 C1208.71,217.3369 1122.28,234.9769 1064.13,244.1369" fill="none" id="Student-backto-NAFES" style="stroke:#000000;stroke-width:2;"/><polygon fill="#000000" points="1141.32,87.5169,1148.5738,94.1789,1146.0588,89.1119,1151.1258,86.5968,1141.32,87.5169" style="stroke:#000000;stroke-width:2;"/><text fill="#000000" font-family="sans-serif" font-size="12" lengthAdjust="spacing" textLength="126.8496" x="1256.9196" y="160.4055">Competition Listings,</text><text fill="#000000" font-family="sans-serif" font-size="12" lengthAdjust="spacing" textLength="167.5488" x="1236.57" y="174.3743">Recommendations, Results,</text><text fill="#000000" font-family="sans-serif" font-size="12" lengthAdjust="spacing" textLength="113.8125" x="1263.4382" y="188.343">Proof, Notifications</text></g><!--link GovAdmin to NAFES--><g class="link" data-entity-1="ent0004" data-entity-2="ent0006" data-link-type="dependency" data-source-line="36" id="lnk15"><path d="M474.44,96.7369 C448.56,106.9769 420.69,123.2069 405.57,148.2669 C395.7,164.6269 392.75,177.0969 405.57,191.2669 C442.11,231.6269 807.1525,245.9443 948.9125,250.0243" fill="none" id="GovAdmin-to-NAFES" style="stroke:#000000;stroke-width:2;"/><polygon fill="#000000" points="954.91,250.1969,946.0288,245.9396,949.9121,250.053,945.7986,253.9363,954.91,250.1969" style="stroke:#000000;stroke-width:2;"/><text fill="#000000" font-family="sans-serif" font-size="12" lengthAdjust="spacing" textLength="178.541" x="421.5671" y="167.4055">Approval/Rejection Decisions,</text><text fill="#000000" font-family="sans-serif" font-size="12" lengthAdjust="spacing" textLength="208.5352" x="406.57" y="181.3743">Category Data, Report Resolutions</text></g><!--reverse link GovAdmin to NAFES--><g class="link" data-entity-1="ent0004" data-entity-2="ent0006" data-link-type="dependency" data-source-line="37" id="lnk17"><path d="M586.2512,122.2468 C624.7812,152.2968 669.5,186.4069 680.57,191.2669 C771.53,231.1069 887.77,244.6269 954.93,249.2069" fill="none" id="GovAdmin-backto-NAFES" style="stroke:#000000;stroke-width:2;"/><polygon fill="#000000" points="581.52,118.5569,586.1569,127.2459,585.4627,121.6318,591.0768,120.9376,581.52,118.5569" style="stroke:#000000;stroke-width:2;"/><text fill="#000000" font-family="sans-serif" font-size="12" lengthAdjust="spacing" textLength="178.5176" x="693.447" y="160.4055">Items for Review (Organizers,</text><text fill="#000000" font-family="sans-serif" font-size="12" lengthAdjust="spacing" textLength="202.2715" x="681.57" y="174.3743">Competitions, Results, Sponsors),</text><text fill="#000000" font-family="sans-serif" font-size="12" lengthAdjust="spacing" textLength="108.6914" x="728.36" y="188.343">Analytics, Reports</text></g><!--link Sponsor to NAFES--><g class="link" data-entity-1="ent0005" data-entity-2="ent0006" data-link-type="dependency" data-source-line="39" id="lnk18"><path d="M60.84,116.5369 C31.17,138.6369 6,167.2569 28.57,191.2669 C60.52,225.2369 747.3719,245.0055 948.9919,250.0955" fill="none" id="Sponsor-to-NAFES" style="stroke:#000000;stroke-width:2;"/><polygon fill="#000000" points="954.99,250.2469,946.0938,246.021,949.9916,250.1207,945.8919,254.0185,954.99,250.2469" style="stroke:#000000;stroke-width:2;"/><text fill="#000000" font-family="sans-serif" font-size="12" lengthAdjust="spacing" textLength="102.5039" x="46.6589" y="160.4055">Company Profile,</text><text fill="#000000" font-family="sans-serif" font-size="12" lengthAdjust="spacing" textLength="136.6816" x="29.57" y="174.3743">Sponsorship Requests,</text><text fill="#000000" font-family="sans-serif" font-size="12" lengthAdjust="spacing" textLength="80.6426" x="57.5895" y="188.343">Career Offers</text></g><!--reverse link Sponsor to NAFES--><g class="link" data-entity-1="ent0005" data-entity-2="ent0006" data-link-type="dependency" data-source-line="40" id="lnk20"><path d="M150.3686,123.2213 C170.1986,148.5513 196.17,175.3869 230.57,191.2669 C359.74,250.8769 800.2,253.2869 955.13,252.2069" fill="none" id="Sponsor-backto-NAFES" style="stroke:#000000;stroke-width:2;"/><polygon fill="#000000" points="146.67,118.4969,149.0683,128.0493,149.7522,122.4339,155.3675,123.1178,146.67,118.4969" style="stroke:#000000;stroke-width:2;"/><text fill="#000000" font-family="sans-serif" font-size="12" lengthAdjust="spacing" textLength="103.9043" x="258.2536" y="160.4055">Package Listings,</text><text fill="#000000" font-family="sans-serif" font-size="12" lengthAdjust="spacing" textLength="157.2715" x="231.57" y="174.3743">Request Status, Analytics,</text><text fill="#000000" font-family="sans-serif" font-size="12" lengthAdjust="spacing" textLength="75.1055" x="272.653" y="188.343">Notifications</text></g><?plantuml-src VLBBRjim4BphAnO-10vWey-J3mNyQ8e2Jk9QxQ60BuoqabbJf4gkxBf5_xqhaNeOJkE3GN9NExCpGv8KmiFyxcCC6oKeCxQ0AQpnY0fUmz9emby4AoboAueeSWUfIy57I34JbQ8xxeZbRuGtRmV5kRNcz7KlauD6v-2gj3JAM5WeaHo6CqL2_Fmd0lujk9PRK-dKDwzblgVlg9Gv-RgnAThXeFvrYFnt292OeZGQDRq44X_E2rNX5Sg3E9wV1NdNlFPAlE_lT6PvdunAQnv-lT6ZpONcHZi2uQ2xjUMOgfGPDiLmRakVp16jBch-yxIGkkdXn-RIDYrvHw7FC8vvLMVihP_aBr7KIp1gRD_frlUchtcBeeuLJ5DpqjCF8ICpgCSZIP96mqgGW1kupmk2BVwiq97RwV7AYepS15OcuVzlPIe8-R15nu7XmpsB9d9qjo_01BwmOOUu5svsEY1uk1ewyitJgkGF-r4pc9UbDKUXM3z1bVFWkNHaHStRJNQwdT_Idi238Pd9n7T4KP3-YjZ6caoogJM12SGeRBA7BnLQYVNS8KxDGtKJ_pTmYwMn177rL4ZdcjRXNkrdbygl6KJgt2EofPo9DEpMwSpEMcEogytQm5mnQMLxjSKVc7Y7CP4kIBPa6tDZps7rm9lHZAheYdU7CeFFX8M3h57xAF44uywiPcw_rp0bmI5toorpBTIPPE9QsDgWuE1p0Qtp7upglNPxMVP-r_jOvBWyPXdpkDGyZ9vryRlGsyVGPsi2FRUTlb3w7m00?></g></svg>